<svg xmlns="http://www.w3.org/2000/svg" viewBox="0 0 1050 620"><defs><style>.p{fill:#fff3f3;stroke:#a63a3a;stroke-width:2}.u{fill:#eef8f6;stroke:#0b6b61;stroke-width:2}.h{font:700 20px Segoe UI,Arial;fill:#14222b}.t{font:14px Segoe UI,Arial;fill:#42545e}.a{stroke:#55737e;stroke-width:2.5;fill:none;marker-end:url(#m)}</style><marker id="m" viewBox="0 0 10 10" refX="9" refY="5" markerWidth="7" markerHeight="7" orient="auto"><path d="M0 0L10 5L0 10z" fill="#55737e"/></marker></defs><rect width="1050" height="620" fill="#f7fafb"/><text class="h" x="40" y="45">Private-to-public evidence flow</text><text class="h" x="60" y="95" fill="#8e2929">PRIVATE UNIVERSITY ENVIRONMENT</text><rect class="p" x="60" y="120" width="250" height="105" rx="14"/><text class="h" x="85" y="158">Raw meter archive</text><text class="t" x="85" y="188">Facility names and timestamps</text><rect class="p" x="390" y="120" width="250" height="105" rx="14"/><text class="h" x="415" y="158">Cleaning and training</text><text class="t" x="415" y="188">Chronological validation</text><rect class="p" x="720" y="120" width="250" height="105" rx="14"/><text class="h" x="745" y="158">Private outputs</text><text class="t" x="745" y="188">Predictions and model files</text><path class="a" d="M310 172H390"/><path class="a" d="M640 172H720"/><line x1="40" y1="285" x2="1010" y2="285" stroke="#6f8189" stroke-dasharray="8 8"/><text class="h" x="60" y="330" fill="#0b6b61">PUBLIC SUBMISSION BOUNDARY</text><rect class="u" x="60" y="360" width="250" height="110" rx="14"/><text class="h" x="85" y="398">Aggregate evidence</text><text class="t" x="85" y="428">Hashes, counts, metrics</text><text class="t" x="85" y="450">Anonymous aliases</text><rect class="u" x="390" y="360" width="250" height="110" rx="14"/><text class="h" x="415" y="398">Public API</text><text class="t" x="415" y="428">Evidence and simulated live forecasts</text><text class="t" x="415" y="450">No raw workbooks</text><rect class="u" x="720" y="360" width="250" height="110" rx="14"/><text class="h" x="745" y="398">Dashboard</text><text class="t" x="745" y="428">Heatmaps and comparisons</text><text class="t" x="745" y="450">Operator workflow</text><path class="a" d="M845 225V300H185V360"/><path class="a" d="M310 415H390"/><path class="a" d="M640 415H720"/><rect x="175" y="520" width="700" height="55" rx="12" fill="#fff" stroke="#6f8189"/><text class="t" x="205" y="553">Excluded: raw datasets, exact readings, real facility mapping, credentials and private model binaries.</text></svg>
